<svg id="svg" version="1.1" xmlns="http://www.w3.org/2000/svg" xmlns:xlink="http://www.w3.org/1999/xlink" width="400" height="400" viewBox="0, 0, 400,400"><g id="svgg"><path id="path0" d="M108.400 24.400 C 108.400 24.620,107.725 24.804,106.900 24.810 C 104.848 24.823,97.747 31.321,79.867 49.546 C 77.630 51.826,74.294 55.156,72.454 56.946 C 70.614 58.736,66.704 62.630,63.764 65.600 C 57.535 71.894,56.640 72.790,48.400 80.976 C 44.990 84.364,41.714 87.703,41.121 88.396 L 40.041 89.655 28.211 77.828 C 21.704 71.322,16.115 66.000,15.790 66.000 C 15.466 66.000,15.200 65.820,15.200 65.600 C 15.200 65.380,14.480 65.200,13.600 65.200 C 12.706 65.200,12.000 65.006,12.000 64.761 C 12.000 64.474,11.344 64.398,10.100 64.540 C 6.788 64.919,5.200 65.277,5.200 65.644 C 5.200 65.840,4.925 66.000,4.589 66.000 C 4.254 66.000,3.129 66.850,2.089 67.889 L 0.200 69.779 0.200 75.401 L 0.200 81.023 16.885 97.711 C 26.062 106.890,33.757 114.400,33.985 114.400 C 34.213 114.400,34.400 114.580,34.400 114.800 C 34.400 115.020,34.929 115.200,35.576 115.200 C 36.223 115.200,36.864 115.380,37.000 115.600 C 37.136 115.820,38.396 116.000,39.800 116.000 C 41.204 116.000,42.464 115.820,42.600 115.600 C 42.736 115.380,43.287 115.200,43.824 115.200 C 44.361 115.200,44.800 115.020,44.800 114.800 C 44.800 114.580,45.065 114.400,45.388 114.400 C 45.922 114.400,50.288 110.383,55.718 104.896 C 65.066 95.451,70.540 90.024,79.622 81.200 C 97.095 64.223,118.965 42.269,119.568 41.100 C 119.880 40.495,120.285 40.000,120.468 40.000 C 120.650 40.000,120.800 39.370,120.800 38.600 C 120.800 37.830,120.980 37.200,121.200 37.200 C 121.422 37.200,121.600 36.141,121.600 34.824 C 121.600 33.517,121.420 32.336,121.200 32.200 C 120.980 32.064,120.800 31.510,120.800 30.968 C 120.800 28.484,116.863 24.800,114.209 24.800 C 113.434 24.800,112.800 24.620,112.800 24.400 C 112.800 24.180,111.810 24.000,110.600 24.000 C 109.390 24.000,108.400 24.180,108.400 24.400 M153.600 40.000 C 153.600 40.220,153.060 40.400,152.400 40.400 C 151.740 40.400,151.200 40.580,151.200 40.800 C 151.200 41.020,150.917 41.200,150.571 41.200 C 150.226 41.200,149.708 41.425,149.420 41.700 C 149.133 41.975,148.516 42.465,148.049 42.788 C 147.582 43.112,147.200 43.607,147.200 43.888 C 147.200 44.170,147.020 44.400,146.800 44.400 C 146.580 44.400,146.400 44.670,146.400 45.000 C 146.400 45.330,146.220 45.600,146.000 45.600 C 145.780 45.600,145.600 46.140,145.600 46.800 C 145.600 47.460,145.420 48.000,145.200 48.000 C 144.975 48.000,144.800 49.125,144.800 50.576 C 144.800 51.993,144.980 53.264,145.200 53.400 C 145.420 53.536,145.600 54.087,145.600 54.624 C 145.600 55.161,145.750 55.600,145.932 55.600 C 146.115 55.600,146.520 56.095,146.832 56.700 C 147.577 58.143,148.219 58.800,148.883 58.800 C 149.180 58.800,149.683 59.160,150.000 59.600 C 150.317 60.040,150.897 60.400,151.288 60.400 C 151.680 60.400,152.000 60.580,152.000 60.800 C 152.000 61.066,192.387 61.200,272.362 61.200 L 392.724 61.200 394.460 60.300 C 395.415 59.805,397.007 58.610,397.998 57.646 L 399.800 55.891 399.800 50.479 C 399.800 46.505,399.667 45.022,399.300 44.900 C 399.025 44.808,398.800 44.570,398.800 44.371 C 398.800 43.712,397.420 42.363,396.100 41.731 C 395.385 41.389,394.800 40.949,394.800 40.754 C 394.800 40.559,394.181 40.400,393.424 40.400 C 392.667 40.400,391.936 40.220,391.800 40.000 C 391.457 39.445,153.600 39.445,153.600 40.000 M152.600 78.800 C 152.464 79.020,151.980 79.200,151.523 79.200 C 151.067 79.200,150.400 79.515,150.041 79.900 C 149.682 80.285,149.043 80.792,148.621 81.027 C 148.199 81.261,147.661 81.792,147.427 82.205 C 147.192 82.618,146.685 83.315,146.300 83.754 C 145.915 84.192,145.600 84.967,145.600 85.475 C 145.600 85.984,145.420 86.400,145.200 86.400 C 144.969 86.400,144.800 87.667,144.800 89.400 C 144.800 91.133,144.969 92.400,145.200 92.400 C 145.420 92.400,145.600 92.760,145.600 93.200 C 145.600 93.640,145.780 94.000,146.000 94.000 C 146.220 94.000,146.400 94.275,146.400 94.611 C 146.400 95.404,149.796 98.800,150.589 98.800 C 150.925 98.800,151.200 98.980,151.200 99.200 C 151.200 99.420,151.560 99.600,152.000 99.600 C 152.440 99.600,152.800 99.780,152.800 100.000 C 152.800 100.266,193.000 100.400,272.600 100.400 C 352.200 100.400,392.400 100.266,392.400 100.000 C 392.400 99.780,392.900 99.600,393.512 99.600 C 394.165 99.600,394.861 99.270,395.200 98.800 C 395.517 98.360,396.031 98.000,396.342 98.000 C 396.988 98.000,398.799 96.035,398.800 95.333 C 398.800 95.077,399.024 94.792,399.298 94.701 C 400.133 94.422,400.260 85.117,399.440 84.297 C 399.088 83.945,398.800 83.458,398.800 83.215 C 398.800 82.549,396.115 80.000,395.413 80.000 C 395.076 80.000,394.800 79.820,394.800 79.600 C 394.800 79.380,394.440 79.200,394.000 79.200 C 393.560 79.200,393.200 79.020,393.200 78.800 C 393.200 78.534,352.875 78.400,273.024 78.400 C 193.337 78.400,152.764 78.535,152.600 78.800 M58.400 154.000 C 58.400 154.237,56.933 154.400,54.800 154.400 C 52.667 154.400,51.200 154.563,51.200 154.800 C 51.200 155.020,50.480 155.200,49.600 155.200 C 48.720 155.200,48.000 155.380,48.000 155.600 C 48.000 155.820,47.370 156.000,46.600 156.000 C 45.830 156.000,45.200 156.180,45.200 156.400 C 45.200 156.620,44.750 156.800,44.200 156.800 C 43.650 156.800,43.200 156.980,43.200 157.200 C 43.200 157.420,42.750 157.600,42.200 157.600 C 41.650 157.600,41.200 157.780,41.200 158.000 C 41.200 158.220,40.909 158.400,40.554 158.400 C 39.838 158.400,35.877 160.426,35.667 160.900 C 35.593 161.065,35.305 161.200,35.026 161.200 C 34.747 161.200,33.954 161.740,33.263 162.400 C 32.572 163.060,31.817 163.600,31.584 163.600 C 31.352 163.600,29.909 164.905,28.378 166.500 C 24.422 170.622,24.000 171.116,24.000 171.625 C 24.000 171.875,23.460 172.583,22.800 173.200 C 22.140 173.817,21.600 174.609,21.600 174.960 C 21.600 175.312,21.420 175.600,21.200 175.600 C 20.980 175.600,20.800 175.870,20.800 176.200 C 20.800 176.530,20.665 176.801,20.500 176.803 C 20.141 176.807,19.200 178.744,19.200 179.480 C 19.200 179.766,19.020 180.000,18.800 180.000 C 18.580 180.000,18.400 180.360,18.400 180.800 C 18.400 181.240,18.220 181.600,18.000 181.600 C 17.780 181.600,17.600 181.960,17.600 182.400 C 17.600 182.840,17.420 183.200,17.200 183.200 C 16.980 183.200,16.800 183.740,16.800 184.400 C 16.800 185.060,16.620 185.600,16.400 185.600 C 16.180 185.600,16.000 186.320,16.000 187.200 C 16.000 188.080,15.820 188.800,15.600 188.800 C 15.380 188.800,15.200 189.599,15.200 190.576 C 15.200 191.553,15.020 192.464,14.800 192.600 C 14.258 192.935,14.258 207.200,14.800 207.200 C 15.020 207.200,15.200 208.100,15.200 209.200 C 15.200 210.300,15.380 211.200,15.600 211.200 C 15.820 211.200,16.000 211.920,16.000 212.800 C 16.000 213.680,16.180 214.400,16.400 214.400 C 16.620 214.400,16.800 214.839,16.800 215.376 C 16.800 215.913,16.980 216.464,17.200 216.600 C 17.420 216.736,17.600 217.197,17.600 217.624 C 17.600 218.051,17.780 218.400,18.000 218.400 C 18.220 218.400,18.400 218.760,18.400 219.200 C 18.400 219.640,18.580 220.000,18.800 220.000 C 19.020 220.000,19.200 220.360,19.200 220.800 C 19.200 221.240,19.380 221.600,19.600 221.600 C 19.820 221.600,20.000 221.960,20.000 222.400 C 20.000 222.840,20.180 223.200,20.400 223.200 C 20.620 223.200,20.800 223.470,20.800 223.800 C 20.800 224.130,20.950 224.400,21.132 224.400 C 21.315 224.400,21.719 224.895,22.030 225.500 C 22.340 226.105,22.911 226.891,23.297 227.247 C 23.684 227.603,24.002 228.053,24.005 228.247 C 24.017 229.097,30.868 236.400,31.653 236.400 C 31.864 236.400,32.472 236.836,33.005 237.369 C 33.538 237.902,34.340 238.454,34.787 238.596 C 35.234 238.738,35.600 239.022,35.600 239.227 C 35.600 239.432,35.960 239.600,36.400 239.600 C 36.840 239.600,37.200 239.747,37.200 239.926 C 37.200 240.324,39.801 241.600,40.614 241.600 C 40.936 241.600,41.200 241.780,41.200 242.000 C 41.200 242.220,41.650 242.400,42.200 242.400 C 42.750 242.400,43.200 242.580,43.200 242.800 C 43.200 243.020,43.740 243.200,44.400 243.200 C 45.060 243.200,45.600 243.380,45.600 243.600 C 45.600 243.820,46.140 244.000,46.800 244.000 C 47.460 244.000,48.000 244.180,48.000 244.400 C 48.000 244.620,48.900 244.800,50.000 244.800 C 51.100 244.800,52.000 244.980,52.000 245.200 C 52.000 245.454,55.133 245.600,60.600 245.600 C 66.067 245.600,69.200 245.454,69.200 245.200 C 69.200 244.980,69.920 244.800,70.800 244.800 C 71.680 244.800,72.400 244.620,72.400 244.400 C 72.400 244.180,73.030 244.000,73.800 244.000 C 74.570 244.000,75.200 243.820,75.200 243.600 C 75.200 243.380,75.740 243.200,76.400 243.200 C 77.060 243.200,77.600 243.020,77.600 242.800 C 77.600 242.580,77.960 242.400,78.400 242.400 C 78.840 242.400,79.200 242.220,79.200 242.000 C 79.200 241.780,79.515 241.599,79.900 241.598 C 81.018 241.596,85.749 239.075,86.843 237.900 C 87.201 237.515,87.669 237.200,87.883 237.200 C 88.097 237.200,89.084 236.435,90.075 235.500 C 91.066 234.565,92.355 233.442,92.938 233.005 C 93.522 232.568,94.000 232.001,94.000 231.746 C 94.000 231.490,94.900 230.362,96.000 229.239 C 97.100 228.115,98.000 226.993,98.000 226.745 C 98.000 226.497,98.329 226.003,98.730 225.647 C 99.132 225.291,99.716 224.415,100.028 223.700 C 100.340 222.985,100.731 222.400,100.898 222.400 C 101.064 222.400,101.200 222.040,101.200 221.600 C 101.200 221.160,101.380 220.800,101.600 220.800 C 101.820 220.800,102.000 220.440,102.000 220.000 C 102.000 219.560,102.180 219.200,102.400 219.200 C 102.620 219.200,102.800 218.840,102.800 218.400 C 102.800 217.960,102.980 217.600,103.200 217.600 C 103.420 217.600,103.600 217.060,103.600 216.400 C 103.600 215.740,103.780 215.200,104.000 215.200 C 104.220 215.200,104.400 214.660,104.400 214.000 C 104.400 213.340,104.580 212.800,104.800 212.800 C 105.020 212.800,105.200 212.206,105.200 211.480 C 105.200 210.754,105.364 209.989,105.565 209.780 C 106.767 208.528,106.767 191.472,105.565 190.220 C 105.364 190.011,105.200 189.246,105.200 188.520 C 105.200 187.794,105.020 187.200,104.800 187.200 C 104.580 187.200,104.400 186.671,104.400 186.024 C 104.400 185.377,104.220 184.736,104.000 184.600 C 103.780 184.464,103.600 183.913,103.600 183.376 C 103.600 182.839,103.420 182.400,103.200 182.400 C 102.980 182.400,102.800 182.040,102.800 181.600 C 102.800 181.160,102.620 180.800,102.400 180.800 C 102.180 180.800,102.000 180.528,102.000 180.195 C 102.000 179.639,101.277 178.076,100.799 177.600 C 100.689 177.490,100.330 176.860,100.002 176.200 C 99.674 175.540,99.089 174.709,98.703 174.353 C 98.316 173.997,98.000 173.488,98.000 173.222 C 98.000 172.955,97.280 172.046,96.400 171.200 C 95.520 170.354,94.800 169.490,94.800 169.280 C 94.800 168.629,90.588 164.628,87.996 162.815 C 87.228 162.278,86.510 161.717,86.400 161.567 C 86.005 161.032,80.616 158.400,79.916 158.400 C 79.522 158.400,79.200 158.220,79.200 158.000 C 79.200 157.780,78.840 157.600,78.400 157.600 C 77.960 157.600,77.600 157.420,77.600 157.200 C 77.600 156.980,77.060 156.800,76.400 156.800 C 75.740 156.800,75.200 156.620,75.200 156.400 C 75.200 156.180,74.761 156.000,74.224 156.000 C 73.687 156.000,73.136 155.820,73.000 155.600 C 72.864 155.380,72.144 155.200,71.400 155.200 C 70.656 155.200,69.936 155.020,69.800 154.800 C 69.664 154.580,68.044 154.400,66.200 154.400 C 64.356 154.400,62.736 154.220,62.600 154.000 C 62.464 153.780,61.463 153.600,60.376 153.600 C 59.289 153.600,58.400 153.780,58.400 154.000 M152.000 170.400 C 152.000 170.620,151.680 170.800,151.288 170.800 C 150.897 170.800,150.317 171.160,150.000 171.600 C 149.683 172.040,149.180 172.400,148.883 172.400 C 148.187 172.400,147.200 173.387,147.200 174.083 C 147.200 174.380,146.840 174.883,146.400 175.200 C 145.960 175.517,145.600 176.176,145.600 176.665 C 145.600 177.153,145.420 177.664,145.200 177.800 C 144.980 177.936,144.800 179.286,144.800 180.800 C 144.800 182.314,144.980 183.664,145.200 183.800 C 145.420 183.936,145.600 184.397,145.600 184.824 C 145.600 185.251,145.780 185.600,146.000 185.600 C 146.220 185.600,146.400 185.835,146.400 186.122 C 146.400 186.879,148.743 189.275,150.600 190.417 L 152.200 191.400 272.600 191.400 C 396.476 191.400,395.600 191.410,395.600 190.000 C 395.600 189.833,396.140 189.473,396.800 189.200 C 397.460 188.927,398.000 188.431,398.000 188.098 C 398.000 187.766,398.405 187.143,398.900 186.714 C 399.970 185.786,400.325 175.643,399.300 175.300 C 399.025 175.209,398.800 174.962,398.800 174.753 C 398.800 174.134,396.079 171.600,395.413 171.600 C 395.076 171.600,394.800 171.420,394.800 171.200 C 394.800 170.980,394.440 170.800,394.000 170.800 C 393.560 170.800,393.200 170.620,393.200 170.400 C 393.200 170.134,352.733 170.000,272.600 170.000 C 192.467 170.000,152.000 170.134,152.000 170.400 M62.000 175.600 C 62.000 175.820,62.889 176.000,63.976 176.000 C 65.063 176.000,66.064 176.180,66.200 176.400 C 66.336 176.620,67.067 176.800,67.824 176.800 C 68.581 176.800,69.200 176.980,69.200 177.200 C 69.200 177.420,69.560 177.600,70.000 177.600 C 70.440 177.600,70.800 177.780,70.800 178.000 C 70.800 178.220,71.120 178.400,71.512 178.400 C 71.903 178.400,72.483 178.760,72.800 179.200 C 73.117 179.640,73.620 180.000,73.917 180.000 C 74.214 180.000,75.299 180.923,76.328 182.052 C 77.358 183.180,78.785 184.704,79.500 185.438 C 80.215 186.173,80.800 187.049,80.800 187.387 C 80.800 187.724,80.980 188.000,81.200 188.000 C 81.420 188.000,81.600 188.360,81.600 188.800 C 81.600 189.240,81.780 189.600,82.000 189.600 C 82.220 189.600,82.400 189.870,82.400 190.200 C 82.400 190.530,82.580 190.800,82.800 190.800 C 83.020 190.800,83.200 191.340,83.200 192.000 C 83.200 192.660,83.380 193.200,83.600 193.200 C 83.820 193.200,84.000 193.909,84.000 194.776 C 84.000 195.643,84.180 196.464,84.400 196.600 C 84.620 196.736,84.800 198.176,84.800 199.800 C 84.800 201.424,84.620 202.864,84.400 203.000 C 84.180 203.136,84.000 204.047,84.000 205.024 C 84.000 206.001,83.820 206.800,83.600 206.800 C 83.380 206.800,83.200 207.340,83.200 208.000 C 83.200 208.660,83.020 209.200,82.800 209.200 C 82.580 209.200,82.400 209.470,82.400 209.800 C 82.400 210.130,82.220 210.400,82.000 210.400 C 81.780 210.400,81.600 210.760,81.600 211.200 C 81.600 211.640,81.420 212.000,81.200 212.000 C 80.980 212.000,80.800 212.264,80.800 212.587 C 80.800 212.909,79.451 214.574,77.802 216.287 C 76.153 217.999,74.803 219.535,74.802 219.700 C 74.801 219.865,74.440 220.000,74.000 220.000 C 73.560 220.000,73.200 220.180,73.200 220.400 C 73.200 220.620,72.922 220.800,72.583 220.800 C 72.244 220.800,71.580 221.160,71.108 221.600 C 70.636 222.040,69.833 222.400,69.325 222.400 C 68.816 222.400,68.400 222.580,68.400 222.800 C 68.400 223.020,67.860 223.200,67.200 223.200 C 66.540 223.200,66.000 223.380,66.000 223.600 C 66.000 223.822,64.933 224.000,63.600 224.000 C 62.267 224.000,61.200 224.178,61.200 224.400 C 61.200 224.620,60.840 224.800,60.400 224.800 C 59.960 224.800,59.600 224.620,59.600 224.400 C 59.600 224.178,58.541 224.000,57.224 224.000 C 55.917 224.000,54.736 223.820,54.600 223.600 C 54.464 223.380,53.823 223.200,53.176 223.200 C 52.529 223.200,52.000 223.020,52.000 222.800 C 52.000 222.580,51.640 222.400,51.200 222.400 C 50.760 222.400,50.400 222.220,50.400 222.000 C 50.400 221.780,50.040 221.600,49.600 221.600 C 49.160 221.600,48.800 221.420,48.800 221.200 C 48.800 220.980,48.512 220.800,48.160 220.800 C 47.809 220.800,47.017 220.260,46.400 219.600 C 45.783 218.940,45.126 218.400,44.940 218.400 C 44.398 218.399,42.400 216.553,42.400 216.053 C 42.400 215.804,42.220 215.600,42.000 215.600 C 41.780 215.600,41.600 215.412,41.600 215.183 C 41.600 214.954,41.375 214.498,41.100 214.169 C 40.825 213.841,40.420 213.353,40.200 213.086 C 39.402 212.116,38.000 209.106,38.000 208.362 C 38.000 207.943,37.820 207.600,37.600 207.600 C 37.380 207.600,37.200 207.060,37.200 206.400 C 37.200 205.740,37.020 205.200,36.800 205.200 C 36.554 205.200,36.400 203.200,36.400 200.000 C 36.400 196.800,36.554 194.800,36.800 194.800 C 37.020 194.800,37.200 194.348,37.200 193.795 C 37.200 193.242,37.360 192.477,37.556 192.095 C 37.752 191.713,38.336 190.500,38.854 189.400 C 39.372 188.300,39.976 187.181,40.198 186.914 C 40.419 186.647,40.825 186.159,41.100 185.831 C 41.375 185.502,41.600 185.040,41.600 184.804 C 41.600 184.287,44.224 181.600,44.727 181.600 C 44.922 181.600,45.646 181.060,46.337 180.400 C 47.028 179.740,47.864 179.200,48.196 179.200 C 48.528 179.200,48.800 179.020,48.800 178.800 C 48.800 178.580,49.160 178.400,49.600 178.400 C 50.040 178.400,50.400 178.220,50.400 178.000 C 50.400 177.780,50.760 177.600,51.200 177.600 C 51.640 177.600,52.000 177.420,52.000 177.200 C 52.000 176.980,52.540 176.800,53.200 176.800 C 53.860 176.800,54.400 176.620,54.400 176.400 C 54.400 176.180,55.390 176.000,56.600 176.000 C 57.810 176.000,58.800 175.820,58.800 175.600 C 58.800 175.380,59.520 175.200,60.400 175.200 C 61.280 175.200,62.000 175.380,62.000 175.600 M152.800 208.745 C 150.322 209.377,146.400 212.522,146.400 213.878 C 146.400 214.165,146.220 214.400,146.000 214.400 C 145.780 214.400,145.600 214.749,145.600 215.176 C 145.600 215.603,145.420 216.064,145.200 216.200 C 144.980 216.336,144.800 217.686,144.800 219.200 C 144.800 220.714,144.980 222.064,145.200 222.200 C 145.420 222.336,145.600 222.847,145.600 223.335 C 145.600 223.824,145.960 224.483,146.400 224.800 C 146.840 225.117,147.200 225.620,147.200 225.917 C 147.200 226.613,148.187 227.600,148.883 227.600 C 149.180 227.600,149.683 227.960,150.000 228.400 C 150.317 228.840,150.897 229.200,151.288 229.200 C 151.680 229.200,152.000 229.380,152.000 229.600 C 152.000 229.866,192.467 230.000,272.600 230.000 C 352.733 230.000,393.200 229.866,393.200 229.600 C 393.200 229.380,393.560 229.200,394.000 229.200 C 394.440 229.200,394.800 229.020,394.800 228.800 C 394.800 228.580,395.076 228.400,395.413 228.400 C 396.079 228.400,398.800 225.866,398.800 225.247 C 398.800 225.038,399.025 224.791,399.300 224.700 C 400.325 224.357,399.970 214.214,398.900 213.286 C 398.405 212.857,398.000 212.234,398.000 211.902 C 398.000 211.569,397.460 211.073,396.800 210.800 C 396.140 210.527,395.600 210.174,395.600 210.016 C 395.600 208.580,397.402 208.602,273.600 208.545 C 207.710 208.515,153.350 208.605,152.800 208.745 M53.600 284.400 C 53.600 284.620,52.700 284.800,51.600 284.800 C 50.500 284.800,49.600 284.980,49.600 285.200 C 49.600 285.420,48.880 285.600,48.000 285.600 C 47.120 285.600,46.400 285.780,46.400 286.000 C 46.400 286.220,45.860 286.400,45.200 286.400 C 44.540 286.400,44.000 286.580,44.000 286.800 C 44.000 287.020,43.550 287.200,43.000 287.200 C 42.450 287.200,42.000 287.380,42.000 287.600 C 42.000 287.820,41.640 288.000,41.200 288.000 C 40.760 288.000,40.400 288.180,40.400 288.400 C 40.400 288.620,40.040 288.800,39.600 288.800 C 39.160 288.800,38.800 288.980,38.800 289.200 C 38.800 289.420,38.480 289.600,38.088 289.600 C 37.697 289.600,37.117 289.960,36.800 290.400 C 36.483 290.840,35.903 291.200,35.512 291.200 C 35.120 291.200,34.800 291.358,34.800 291.551 C 34.800 291.745,34.246 292.132,33.569 292.413 C 32.891 292.694,31.642 293.570,30.793 294.362 C 29.943 295.153,28.605 296.340,27.819 297.000 C 27.034 297.660,26.302 298.478,26.195 298.817 C 26.087 299.157,25.414 300.061,24.699 300.827 C 23.985 301.592,23.145 302.709,22.832 303.309 C 22.520 303.909,22.115 304.400,21.932 304.400 C 21.750 304.400,21.600 304.720,21.600 305.112 C 21.600 305.503,21.240 306.083,20.800 306.400 C 20.360 306.717,20.000 307.297,20.000 307.688 C 20.000 308.080,19.854 308.400,19.675 308.400 C 19.496 308.400,19.102 309.030,18.800 309.800 C 18.498 310.570,18.104 311.200,17.925 311.200 C 17.746 311.200,17.600 311.740,17.600 312.400 C 17.600 313.060,17.420 313.600,17.200 313.600 C 16.980 313.600,16.800 314.039,16.800 314.576 C 16.800 315.113,16.620 315.664,16.400 315.800 C 16.180 315.936,16.000 316.577,16.000 317.224 C 16.000 317.871,15.820 318.400,15.600 318.400 C 15.380 318.400,15.200 319.300,15.200 320.400 C 15.200 321.500,15.020 322.400,14.800 322.400 C 14.547 322.400,14.400 325.200,14.400 330.000 C 14.400 334.800,14.547 337.600,14.800 337.600 C 15.020 337.600,15.200 338.500,15.200 339.600 C 15.200 340.700,15.380 341.600,15.600 341.600 C 15.820 341.600,16.000 342.140,16.000 342.800 C 16.000 343.460,16.180 344.000,16.400 344.000 C 16.620 344.000,16.800 344.540,16.800 345.200 C 16.800 345.860,16.980 346.400,17.200 346.400 C 17.420 346.400,17.600 346.940,17.600 347.600 C 17.600 348.260,17.780 348.800,18.000 348.800 C 18.220 348.800,18.400 349.160,18.400 349.600 C 18.400 350.040,18.580 350.400,18.800 350.400 C 19.020 350.400,19.200 350.760,19.200 351.200 C 19.200 351.640,19.380 352.000,19.600 352.000 C 19.820 352.000,20.000 352.236,20.000 352.525 C 20.000 352.813,20.360 353.436,20.800 353.908 C 21.240 354.380,21.600 355.004,21.600 355.295 C 21.600 355.586,21.960 356.083,22.400 356.400 C 22.840 356.717,23.200 357.125,23.200 357.306 C 23.200 357.488,23.605 358.067,24.100 358.593 C 24.595 359.119,25.450 360.116,26.000 360.809 C 26.550 361.501,27.334 362.367,27.742 362.734 C 28.151 363.100,29.480 364.345,30.696 365.500 C 31.912 366.655,33.114 367.600,33.365 367.600 C 33.617 367.600,34.083 367.960,34.400 368.400 C 34.717 368.840,35.282 369.200,35.655 369.200 C 36.028 369.200,36.393 369.346,36.467 369.525 C 36.646 369.963,42.819 372.928,45.800 374.008 C 47.120 374.486,49.595 374.976,51.300 375.096 C 53.005 375.216,54.400 375.469,54.400 375.657 C 54.400 376.148,66.296 376.092,66.600 375.600 C 66.736 375.380,67.512 375.203,68.324 375.207 C 70.187 375.216,76.000 373.934,76.000 373.514 C 76.000 373.341,76.439 373.200,76.976 373.200 C 77.513 373.200,78.064 373.020,78.200 372.800 C 78.336 372.580,78.797 372.400,79.224 372.400 C 79.651 372.400,80.000 372.220,80.000 372.000 C 80.000 371.780,80.360 371.600,80.800 371.600 C 81.240 371.600,81.600 371.420,81.600 371.200 C 81.600 370.980,81.960 370.800,82.400 370.800 C 82.840 370.800,83.200 370.620,83.200 370.400 C 83.200 370.180,83.436 370.000,83.725 370.000 C 84.013 370.000,84.636 369.640,85.108 369.200 C 85.580 368.760,86.172 368.400,86.423 368.400 C 86.674 368.400,87.383 367.860,88.000 367.200 C 88.617 366.540,89.262 366.000,89.434 366.000 C 89.895 366.000,96.400 359.236,96.400 358.757 C 96.400 358.532,96.940 357.894,97.600 357.339 C 98.260 356.783,98.800 356.075,98.800 355.764 C 98.800 355.454,98.980 355.200,99.200 355.200 C 99.420 355.200,99.600 354.964,99.600 354.675 C 99.600 354.387,99.960 353.764,100.400 353.292 C 100.840 352.820,101.200 352.156,101.200 351.817 C 101.200 351.478,101.380 351.200,101.600 351.200 C 101.820 351.200,102.000 350.840,102.000 350.400 C 102.000 349.960,102.180 349.600,102.400 349.600 C 102.620 349.600,102.800 349.251,102.800 348.824 C 102.800 348.397,102.980 347.936,103.200 347.800 C 103.420 347.664,103.600 347.113,103.600 346.576 C 103.600 346.039,103.780 345.600,104.000 345.600 C 104.220 345.600,104.400 345.071,104.400 344.424 C 104.400 343.777,104.580 343.136,104.800 343.000 C 105.020 342.864,105.200 342.133,105.200 341.376 C 105.200 340.619,105.365 340.000,105.566 340.000 C 106.062 340.000,106.456 335.575,106.456 330.000 C 106.456 324.425,106.062 320.000,105.566 320.000 C 105.365 320.000,105.200 319.381,105.200 318.624 C 105.200 317.867,105.020 317.136,104.800 317.000 C 104.580 316.864,104.400 316.223,104.400 315.576 C 104.400 314.929,104.220 314.400,104.000 314.400 C 103.780 314.400,103.600 314.065,103.600 313.656 C 103.600 312.854,101.195 307.887,100.700 307.667 C 100.535 307.593,100.400 307.228,100.400 306.855 C 100.400 306.482,100.040 305.917,99.600 305.600 C 99.160 305.283,98.800 304.743,98.800 304.400 C 98.800 304.057,98.440 303.517,98.000 303.200 C 97.560 302.883,97.200 302.419,97.200 302.168 C 97.200 300.913,86.615 291.200,85.246 291.200 C 85.001 291.200,84.800 291.020,84.800 290.800 C 84.800 290.580,84.440 290.400,84.000 290.400 C 83.560 290.400,83.200 290.220,83.200 290.000 C 83.200 289.780,82.840 289.600,82.400 289.600 C 81.960 289.600,81.600 289.420,81.600 289.200 C 81.600 288.980,81.240 288.800,80.800 288.800 C 80.360 288.800,80.000 288.620,80.000 288.400 C 80.000 288.180,79.640 288.000,79.200 288.000 C 78.760 288.000,78.400 287.820,78.400 287.600 C 78.400 287.380,78.040 287.200,77.600 287.200 C 77.160 287.200,76.800 287.020,76.800 286.800 C 76.800 286.580,76.260 286.400,75.600 286.400 C 74.940 286.400,74.400 286.220,74.400 286.000 C 74.400 285.780,73.770 285.600,73.000 285.600 C 72.230 285.600,71.600 285.420,71.600 285.200 C 71.600 284.980,70.711 284.800,69.624 284.800 C 68.537 284.800,67.536 284.620,67.400 284.400 C 67.251 284.159,64.463 284.000,60.376 284.000 C 56.125 284.000,53.600 284.149,53.600 284.400 M152.800 300.000 C 152.800 300.220,152.528 300.400,152.195 300.400 C 150.545 300.400,146.115 304.525,145.738 306.411 C 145.607 307.065,145.343 307.600,145.150 307.600 C 144.958 307.600,144.800 308.950,144.800 310.600 C 144.800 312.250,144.958 313.600,145.150 313.600 C 145.343 313.600,145.610 314.149,145.744 314.820 C 146.068 316.441,149.959 320.332,151.580 320.656 C 152.251 320.790,152.800 321.058,152.800 321.250 C 152.800 321.449,204.269 321.600,272.272 321.600 C 397.849 321.600,393.425 321.661,395.375 319.900 C 395.802 319.515,396.305 319.200,396.494 319.200 C 397.061 319.200,398.800 317.279,398.800 316.652 C 398.800 316.330,399.025 315.992,399.300 315.900 C 399.665 315.778,399.800 314.351,399.800 310.600 C 399.800 306.849,399.665 305.422,399.300 305.300 C 399.025 305.208,398.800 304.870,398.800 304.548 C 398.800 303.819,397.021 302.000,396.306 302.000 C 396.015 302.000,395.517 301.640,395.200 301.200 C 394.883 300.760,394.224 300.400,393.735 300.400 C 393.247 300.400,392.736 300.220,392.600 300.000 C 392.436 299.735,351.996 299.600,272.576 299.600 C 192.992 299.600,152.800 299.734,152.800 300.000 M67.714 307.062 C 69.521 307.647,71.171 308.277,71.380 308.462 C 71.589 308.648,72.044 308.800,72.392 308.800 C 72.739 308.800,73.283 309.160,73.600 309.600 C 73.917 310.040,74.331 310.400,74.519 310.400 C 75.081 310.400,80.000 315.647,80.000 316.246 C 80.000 316.551,80.180 316.800,80.400 316.800 C 80.620 316.800,80.800 317.036,80.800 317.325 C 80.800 317.613,81.160 318.236,81.600 318.708 C 82.040 319.180,82.400 319.844,82.400 320.183 C 82.400 320.522,82.580 320.800,82.800 320.800 C 83.020 320.800,83.200 321.329,83.200 321.976 C 83.200 322.623,83.380 323.264,83.600 323.400 C 83.820 323.536,84.000 324.357,84.000 325.224 C 84.000 326.091,84.180 326.800,84.400 326.800 C 84.633 326.800,84.800 328.133,84.800 330.000 C 84.800 331.867,84.633 333.200,84.400 333.200 C 84.180 333.200,84.000 333.920,84.000 334.800 C 84.000 335.680,83.820 336.400,83.600 336.400 C 83.380 336.400,83.200 336.940,83.200 337.600 C 83.200 338.260,83.020 338.800,82.800 338.800 C 82.580 338.800,82.400 339.160,82.400 339.600 C 82.400 340.040,82.220 340.400,82.000 340.400 C 81.780 340.400,81.600 340.760,81.600 341.200 C 81.600 341.640,81.420 342.000,81.200 342.000 C 80.980 342.000,80.800 342.190,80.800 342.422 C 80.800 342.654,80.261 343.419,79.602 344.122 C 78.943 344.825,78.403 345.543,78.402 345.718 C 78.400 346.098,76.547 348.000,76.179 348.000 C 76.037 348.000,75.417 348.540,74.800 349.200 C 74.183 349.860,73.391 350.400,73.040 350.400 C 72.688 350.400,72.400 350.580,72.400 350.800 C 72.400 351.020,72.040 351.200,71.600 351.200 C 71.160 351.200,70.799 351.335,70.797 351.500 C 70.792 351.947,68.774 352.800,67.720 352.800 C 67.214 352.800,66.800 352.980,66.800 353.200 C 66.800 353.420,66.170 353.600,65.400 353.600 C 64.630 353.600,64.000 353.780,64.000 354.000 C 64.000 354.237,62.541 354.400,60.424 354.400 C 58.457 354.400,56.736 354.220,56.600 354.000 C 56.464 353.780,55.733 353.600,54.976 353.600 C 54.219 353.600,53.600 353.420,53.600 353.200 C 53.600 352.980,53.060 352.800,52.400 352.800 C 51.740 352.800,51.200 352.620,51.200 352.400 C 51.200 352.180,50.840 352.000,50.400 352.000 C 49.960 352.000,49.600 351.820,49.600 351.600 C 49.600 351.380,49.364 351.200,49.075 351.200 C 48.787 351.200,48.164 350.840,47.692 350.400 C 47.220 349.960,46.632 349.600,46.386 349.600 C 45.627 349.600,41.012 344.573,40.184 342.844 C 39.753 341.945,39.265 341.207,39.100 341.205 C 38.935 341.202,38.800 340.840,38.800 340.400 C 38.800 339.960,38.620 339.600,38.400 339.600 C 38.180 339.600,38.000 339.240,38.000 338.800 C 38.000 338.360,37.840 338.000,37.644 338.000 C 37.075 338.000,36.726 335.391,36.535 329.700 C 36.415 326.139,36.495 324.400,36.778 324.400 C 37.010 324.400,37.200 323.961,37.200 323.424 C 37.200 322.887,37.380 322.336,37.600 322.200 C 37.820 322.064,38.000 321.513,38.000 320.976 C 38.000 320.439,38.149 320.000,38.332 320.000 C 38.514 320.000,39.090 319.089,39.611 317.976 C 40.656 315.745,46.347 309.600,47.367 309.600 C 47.715 309.600,48.000 309.420,48.000 309.200 C 48.000 308.980,48.283 308.800,48.629 308.800 C 48.974 308.800,49.527 308.530,49.857 308.200 C 50.187 307.870,50.884 307.600,51.405 307.600 C 51.926 307.600,52.464 307.420,52.600 307.200 C 52.736 306.980,53.276 306.800,53.800 306.800 C 54.324 306.800,54.864 306.620,55.000 306.400 C 55.566 305.484,64.229 305.936,67.714 307.062 M152.000 339.200 C 152.000 339.420,151.640 339.600,151.200 339.600 C 150.760 339.600,150.400 339.780,150.400 340.000 C 150.400 340.220,150.122 340.400,149.782 340.400 C 149.195 340.400,147.200 342.099,147.200 342.599 C 147.200 342.728,146.840 343.220,146.400 343.692 C 145.960 344.164,145.600 344.967,145.600 345.475 C 145.600 345.984,145.420 346.400,145.200 346.400 C 144.633 346.400,144.702 350.898,145.297 352.806 C 145.571 353.683,145.931 354.400,146.097 354.400 C 146.264 354.400,146.400 354.670,146.400 355.000 C 146.400 355.330,146.580 355.600,146.800 355.600 C 147.020 355.600,147.200 355.804,147.200 356.053 C 147.200 356.648,148.600 357.844,150.046 358.485 C 150.681 358.765,151.200 359.131,151.200 359.298 C 151.200 359.464,151.920 359.600,152.800 359.600 C 153.680 359.600,154.400 359.780,154.400 360.000 C 154.400 360.266,194.067 360.400,272.600 360.400 C 351.133 360.400,390.800 360.266,390.800 360.000 C 390.800 359.780,391.432 359.600,392.205 359.600 C 393.570 359.600,394.825 359.098,395.887 358.126 C 396.172 357.866,396.764 357.538,397.202 357.399 C 397.641 357.260,398.000 356.954,398.000 356.720 C 398.000 356.486,398.405 355.943,398.900 355.514 C 400.133 354.445,400.293 344.638,399.097 343.441 C 398.711 343.054,398.210 342.392,397.983 341.969 C 397.757 341.546,397.348 341.200,397.074 341.200 C 396.801 341.200,396.317 340.840,396.000 340.400 C 395.683 339.960,395.103 339.600,394.712 339.600 C 394.320 339.600,394.000 339.420,394.000 339.200 C 394.000 338.934,353.400 338.800,273.000 338.800 C 192.600 338.800,152.000 338.934,152.000 339.200 " stroke="none" fill="#040404" fill-rule="evenodd"></path><path id="path1" d="" stroke="none" fill="#080404" fill-rule="evenodd"></path><path id="path2" d="" stroke="none" fill="#080404" fill-rule="evenodd"></path><path id="path3" d="" stroke="none" fill="#080404" fill-rule="evenodd"></path><path id="path4" d="" stroke="none" fill="#080404" fill-rule="evenodd"></path></g></svg>